# xmcd
#
# Track frame offsets:
# 150
# 17652
# 32512
# 49595
# 69250
# 90677
# 109265
# 123367
# 138675
# 152375
# 163232
# 179277
# 194815
# 204567
# 218162
# 234145
# 249530
# 262292
# 280107
# 298235
# 314055
#
# Disc length: 4355 seconds
#
#
# Revision: 8
# Processed by: cddbd v1.5.2PL0 Copyright (c) Steve Scherf et al.
# Submitted via: FreeRIP 2.945 
#
DISCID=3e110115
DTITLE=Renato Teixeira and Pena Branca E Xavantinho - Ao Vivo Em Tatuí
DYEAR=1992
DGENRE=Acoustic
TTITLE0=Amanheceu, Peguei A Viola
TTITLE1=Chalana
TTITLE2=Rio De Lágrimas
TTITLE3=Raízes
TTITLE4=Romaria
TTITLE5=O Cio Da Terra
TTITLE6=Gente Que Vem De Lisboa - Peixinhos Do Mar
TTITLE7=Vide, Vida Marvada
TTITLE8=O Violeiro Toca
TTITLE9=Meu Veneno
TTITLE10=Amora
TTITLE11=Tocando Em Frente
TTITLE12=Canto Do Povo De Um Lugar
TTITLE13=Jardim Da Fantasia
TTITLE14=Vaca Estrela E Boi Fubá
TTITLE15=Cuitelinho
TTITLE16=Quebra De Milho
TTITLE17=Chuá Chuá
TTITLE18=Rapaz Caipira
TTITLE19=De Papo Pro Á
TTITLE20=Calix Bento
EXTD=2004
EXTT0=
EXTT1=
EXTT2=
EXTT3=
EXTT4=
EXTT5=
EXTT6=
EXTT7=
EXTT8=
EXTT9=
EXTT10=
EXTT11=
EXTT12=
EXTT13=
EXTT14=
EXTT15=
EXTT16=
EXTT17=
EXTT18=
EXTT19=
EXTT20=
PLAYORDER=
